<?xml version="1.0" encoding="UTF-8"?>
<svg id="vahdg" xmlns="http://www.w3.org/2000/svg" viewBox="0 0 480.62 540">
  <defs>
    <style>
      .cls-1 {
        fill: #fff;
      }
    </style>
  </defs>
  <path class="cls-1" d="M134.93,198.17l101.47-58.59c2.84-1.64,6.33-1.64,9.17,0l101.47,58.59c2.84,1.64,6.33,1.64,9.17,0l101.47-58.59c6.12-3.53,6.12-12.36,0-15.89L245.57,1.23c-2.84-1.64-6.33-1.64-9.17,0L24.28,123.7c-6.12,3.53-6.12,12.36,0,15.89l101.47,58.59c2.84,1.64,6.33,1.64,9.17,0Z"/>
  <path class="cls-1" d="M360.81,222v117.17c0,3.28-1.75,6.31-4.59,7.94l-101.47,58.58c-2.84,1.64-4.59,4.67-4.59,7.94v117.17c0,7.06,7.64,11.47,13.76,7.94l212.12-122.47c2.84-1.64,4.59-4.67,4.59-7.94v-244.93c0-7.06-7.64-11.47-13.76-7.94l-101.47,58.59c-2.84,1.64-4.59,4.67-4.59,7.94Z"/>
  <path class="cls-1" d="M227.23,405.7l-101.47-58.58c-2.84-1.64-4.59-4.67-4.59-7.94v-117.17c0-3.28-1.75-6.31-4.59-7.94L15.11,155.47c-6.12-3.53-13.76.88-13.76,7.94v244.93c0,3.28,1.75,6.31,4.59,7.94l212.12,122.47c6.12,3.53,13.76-.88,13.76-7.94v-117.17c0-3.28-1.75-6.31-4.59-7.94Z"/>
</svg>